<?xml version="1.0" encoding="UTF-8" standalone="no"?>
<!DOCTYPE svg PUBLIC "-//W3C//DTD SVG 1.1//EN"
 "http://www.w3.org/Graphics/SVG/1.1/DTD/svg11.dtd">
<!-- Generated by graphviz version 2.36.0 (20140111.2315)
 -->
<!-- Title: CaffeNet_b Pages: 1 -->
<svg width="3538pt" height="366pt"
 viewBox="0.00 0.00 3538.00 366.00" xmlns="http://www.w3.org/2000/svg" xmlns:xlink="http://www.w3.org/1999/xlink">
<g id="graph0" class="graph" transform="scale(1 1) rotate(0) translate(4 362)">
<title>CaffeNet_b</title>
<polygon fill="white" stroke="none" points="-4,4 -4,-362 3534,-362 3534,4 -4,4"/>
<!-- prob\n(Softmax) -->
<g id="node1" class="node"><title>prob\n(Softmax)</title>
<polygon fill="#6495ed" stroke="black" points="3366,-57 3366,-95 3438,-95 3438,-57 3366,-57"/>
<text text-anchor="middle" x="3402" y="-79.8" font-family="Times,serif" font-size="14.00">prob</text>
<text text-anchor="middle" x="3402" y="-64.8" font-family="Times,serif" font-size="14.00">(Softmax)</text>
</g>
<!-- prob -->
<g id="node17" class="node"><title>prob</title>
<ellipse fill="none" stroke="black" cx="3503" cy="-76" rx="27" ry="18"/>
<text text-anchor="middle" x="3503" y="-72.3" font-family="Times,serif" font-size="14.00">prob</text>
</g>
<!-- prob\n(Softmax)&#45;&gt;prob -->
<g id="edge47" class="edge"><title>prob\n(Softmax)&#45;&gt;prob</title>
<path fill="none" stroke="black" d="M3438.18,-76C3447.13,-76 3456.76,-76 3465.76,-76"/>
<polygon fill="black" stroke="black" points="3465.96,-79.5001 3475.96,-76 3465.96,-72.5001 3465.96,-79.5001"/>
</g>
<!-- conv4 -->
<g id="node2" class="node"><title>conv4</title>
<polygon fill="#e0e0e0" stroke="black" points="2086.35,-68.5442 2086.35,-83.4558 2065.64,-94 2036.36,-94 2015.65,-83.4558 2015.65,-68.5442 2036.36,-58 2065.64,-58 2086.35,-68.5442"/>
<text text-anchor="middle" x="2051" y="-72.3" font-family="Times,serif" font-size="14.00">conv4</text>
</g>
<!-- conv5\n(Convolution)\nkernel size: 3\nstride: 1\npad: 1 -->
<g id="node6" class="node"><title>conv5\n(Convolution)\nkernel size: 3\nstride: 1\npad: 1</title>
<polygon fill="#ff5050" stroke="black" points="2124.5,-114.5 2124.5,-197.5 2217.5,-197.5 2217.5,-114.5 2124.5,-114.5"/>
<text text-anchor="middle" x="2171" y="-182.3" font-family="Times,serif" font-size="14.00">conv5</text>
<text text-anchor="middle" x="2171" y="-167.3" font-family="Times,serif" font-size="14.00">(Convolution)</text>
<text text-anchor="middle" x="2171" y="-152.3" font-family="Times,serif" font-size="14.00">kernel size: 3</text>
<text text-anchor="middle" x="2171" y="-137.3" font-family="Times,serif" font-size="14.00">stride: 1</text>
<text text-anchor="middle" x="2171" y="-122.3" font-family="Times,serif" font-size="14.00">pad: 1</text>
</g>
<!-- conv4&#45;&gt;conv5\n(Convolution)\nkernel size: 3\nstride: 1\npad: 1 -->
<g id="edge26" class="edge"><title>conv4&#45;&gt;conv5\n(Convolution)\nkernel size: 3\nstride: 1\npad: 1</title>
<path fill="none" stroke="black" d="M2073.1,-90.3024C2085.07,-98.4174 2100.64,-108.98 2115.8,-119.254"/>
<polygon fill="black" stroke="black" points="2113.91,-122.2 2124.15,-124.914 2117.84,-116.406 2113.91,-122.2"/>
</g>
<!-- relu4\n(ReLU) -->
<g id="node36" class="node"><title>relu4\n(ReLU)</title>
<polygon fill="#90ee90" stroke="black" points="2141.5,-57 2141.5,-95 2200.5,-95 2200.5,-57 2141.5,-57"/>
<text text-anchor="middle" x="2171" y="-79.8" font-family="Times,serif" font-size="14.00">relu4</text>
<text text-anchor="middle" x="2171" y="-64.8" font-family="Times,serif" font-size="14.00">(ReLU)</text>
</g>
<!-- conv4&#45;&gt;relu4\n(ReLU) -->
<g id="edge24" class="edge"><title>conv4&#45;&gt;relu4\n(ReLU)</title>
<path fill="none" stroke="black" d="M2086.45,-69.7989C2100.46,-69.1354 2116.72,-69.0734 2131.16,-69.6131"/>
<polygon fill="black" stroke="black" points="2131.12,-73.1156 2141.28,-70.1123 2131.47,-66.1241 2131.12,-73.1156"/>
</g>
<!-- data -->
<g id="node3" class="node"><title>data</title>
<polygon fill="#e0e0e0" stroke="black" points="147.373,-308.544 147.373,-323.456 131.338,-334 108.662,-334 92.6274,-323.456 92.6274,-308.544 108.662,-298 131.338,-298 147.373,-308.544"/>
<text text-anchor="middle" x="120" y="-312.3" font-family="Times,serif" font-size="14.00">data</text>
</g>
<!-- conv1\n(Convolution)\nkernel size: 11\nstride: 4\npad: 0 -->
<g id="node12" class="node"><title>conv1\n(Convolution)\nkernel size: 11\nstride: 4\npad: 0</title>
<polygon fill="#ff5050" stroke="black" points="186,-274.5 186,-357.5 282,-357.5 282,-274.5 186,-274.5"/>
<text text-anchor="middle" x="234" y="-342.3" font-family="Times,serif" font-size="14.00">conv1</text>
<text text-anchor="middle" x="234" y="-327.3" font-family="Times,serif" font-size="14.00">(Convolution)</text>
<text text-anchor="middle" x="234" y="-312.3" font-family="Times,serif" font-size="14.00">kernel size: 11</text>
<text text-anchor="middle" x="234" y="-297.3" font-family="Times,serif" font-size="14.00">stride: 4</text>
<text text-anchor="middle" x="234" y="-282.3" font-family="Times,serif" font-size="14.00">pad: 0</text>
</g>
<!-- data&#45;&gt;conv1\n(Convolution)\nkernel size: 11\nstride: 4\npad: 0 -->
<g id="edge2" class="edge"><title>data&#45;&gt;conv1\n(Convolution)\nkernel size: 11\nstride: 4\npad: 0</title>
<path fill="none" stroke="black" d="M147.542,-316C155.992,-316 165.693,-316 175.456,-316"/>
<polygon fill="black" stroke="black" points="175.603,-319.5 185.603,-316 175.603,-312.5 175.603,-319.5"/>
</g>
<!-- pool2 -->
<g id="node4" class="node"><title>pool2</title>
<polygon fill="#e0e0e0" stroke="black" points="1360.13,-148.544 1360.13,-163.456 1340.72,-174 1313.28,-174 1293.87,-163.456 1293.87,-148.544 1313.28,-138 1340.72,-138 1360.13,-148.544"/>
<text text-anchor="middle" x="1327" y="-152.3" font-family="Times,serif" font-size="14.00">pool2</text>
</g>
<!-- norm2\n(LRN) -->
<g id="node19" class="node"><title>norm2\n(LRN)</title>
<polygon fill="#6495ed" stroke="black" points="1398,-137 1398,-175 1452,-175 1452,-137 1398,-137"/>
<text text-anchor="middle" x="1425" y="-159.8" font-family="Times,serif" font-size="14.00">norm2</text>
<text text-anchor="middle" x="1425" y="-144.8" font-family="Times,serif" font-size="14.00">(LRN)</text>
</g>
<!-- pool2&#45;&gt;norm2\n(LRN) -->
<g id="edge16" class="edge"><title>pool2&#45;&gt;norm2\n(LRN)</title>
<path fill="none" stroke="black" d="M1360.23,-156C1369,-156 1378.56,-156 1387.55,-156"/>
<polygon fill="black" stroke="black" points="1387.75,-159.5 1397.75,-156 1387.75,-152.5 1387.75,-159.5"/>
</g>
<!-- relu7\n(ReLU) -->
<g id="node5" class="node"><title>relu7\n(ReLU)</title>
<polygon fill="#90ee90" stroke="black" points="3152.5,-114 3152.5,-152 3211.5,-152 3211.5,-114 3152.5,-114"/>
<text text-anchor="middle" x="3182" y="-136.8" font-family="Times,serif" font-size="14.00">relu7</text>
<text text-anchor="middle" x="3182" y="-121.8" font-family="Times,serif" font-size="14.00">(ReLU)</text>
</g>
<!-- fc7 -->
<g id="node13" class="node"><title>fc7</title>
<polygon fill="#e0e0e0" stroke="black" points="3096,-68.5442 3096,-83.4558 3080.18,-94 3057.82,-94 3042,-83.4558 3042,-68.5442 3057.82,-58 3080.18,-58 3096,-68.5442"/>
<text text-anchor="middle" x="3069" y="-72.3" font-family="Times,serif" font-size="14.00">fc7</text>
</g>
<!-- relu7\n(ReLU)&#45;&gt;fc7 -->
<g id="edge41" class="edge"><title>relu7\n(ReLU)&#45;&gt;fc7</title>
<path fill="none" stroke="black" d="M3152.3,-124.259C3134.79,-116.335 3112.59,-104.867 3095.66,-94.9704"/>
<polygon fill="black" stroke="black" points="3097.23,-91.8312 3086.86,-89.6664 3093.62,-97.8264 3097.23,-91.8312"/>
</g>
<!-- conv5 -->
<g id="node20" class="node"><title>conv5</title>
<polygon fill="#e0e0e0" stroke="black" points="2346.35,-148.544 2346.35,-163.456 2325.64,-174 2296.36,-174 2275.65,-163.456 2275.65,-148.544 2296.36,-138 2325.64,-138 2346.35,-148.544"/>
<text text-anchor="middle" x="2311" y="-152.3" font-family="Times,serif" font-size="14.00">conv5</text>
</g>
<!-- conv5\n(Convolution)\nkernel size: 3\nstride: 1\npad: 1&#45;&gt;conv5 -->
<g id="edge27" class="edge"><title>conv5\n(Convolution)\nkernel size: 3\nstride: 1\npad: 1&#45;&gt;conv5</title>
<path fill="none" stroke="black" d="M2217.57,-156C2232.88,-156 2249.93,-156 2265.18,-156"/>
<polygon fill="black" stroke="black" points="2265.41,-159.5 2275.41,-156 2265.41,-152.5 2265.41,-159.5"/>
<text text-anchor="middle" x="2247" y="-159.8" font-family="Times,serif" font-size="14.00">256</text>
</g>
<!-- relu5\n(ReLU) -->
<g id="node7" class="node"><title>relu5\n(ReLU)</title>
<polygon fill="#90ee90" stroke="black" points="2406.5,-137 2406.5,-175 2465.5,-175 2465.5,-137 2406.5,-137"/>
<text text-anchor="middle" x="2436" y="-159.8" font-family="Times,serif" font-size="14.00">relu5</text>
<text text-anchor="middle" x="2436" y="-144.8" font-family="Times,serif" font-size="14.00">(ReLU)</text>
</g>
<!-- relu5\n(ReLU)&#45;&gt;conv5 -->
<g id="edge29" class="edge"><title>relu5\n(ReLU)&#45;&gt;conv5</title>
<path fill="none" stroke="black" d="M2406.32,-161.81C2391.47,-162.753 2372.99,-162.986 2356.34,-162.511"/>
<polygon fill="black" stroke="black" points="2356.39,-159.01 2346.26,-162.123 2356.12,-166.005 2356.39,-159.01"/>
</g>
<!-- pool5 -->
<g id="node8" class="node"><title>pool5</title>
<polygon fill="#e0e0e0" stroke="black" points="2592.13,-68.5442 2592.13,-83.4558 2572.72,-94 2545.28,-94 2525.87,-83.4558 2525.87,-68.5442 2545.28,-58 2572.72,-58 2592.13,-68.5442"/>
<text text-anchor="middle" x="2559" y="-72.3" font-family="Times,serif" font-size="14.00">pool5</text>
</g>
<!-- fc6\n(InnerProduct) -->
<g id="node30" class="node"><title>fc6\n(InnerProduct)</title>
<polygon fill="#cc33ff" stroke="black" points="2630,-57 2630,-95 2726,-95 2726,-57 2630,-57"/>
<text text-anchor="middle" x="2678" y="-79.8" font-family="Times,serif" font-size="14.00">fc6</text>
<text text-anchor="middle" x="2678" y="-64.8" font-family="Times,serif" font-size="14.00">(InnerProduct)</text>
</g>
<!-- pool5&#45;&gt;fc6\n(InnerProduct) -->
<g id="edge32" class="edge"><title>pool5&#45;&gt;fc6\n(InnerProduct)</title>
<path fill="none" stroke="black" d="M2592.28,-76C2600.82,-76 2610.31,-76 2619.75,-76"/>
<polygon fill="black" stroke="black" points="2619.93,-79.5001 2629.93,-76 2619.93,-72.5001 2619.93,-79.5001"/>
</g>
<!-- fc8\n(InnerProduct) -->
<g id="node9" class="node"><title>fc8\n(InnerProduct)</title>
<polygon fill="#cc33ff" stroke="black" points="3134,-57 3134,-95 3230,-95 3230,-57 3134,-57"/>
<text text-anchor="middle" x="3182" y="-79.8" font-family="Times,serif" font-size="14.00">fc8</text>
<text text-anchor="middle" x="3182" y="-64.8" font-family="Times,serif" font-size="14.00">(InnerProduct)</text>
</g>
<!-- fc8 -->
<g id="node33" class="node"><title>fc8</title>
<polygon fill="#e0e0e0" stroke="black" points="3328,-68.5442 3328,-83.4558 3312.18,-94 3289.82,-94 3274,-83.4558 3274,-68.5442 3289.82,-58 3312.18,-58 3328,-68.5442"/>
<text text-anchor="middle" x="3301" y="-72.3" font-family="Times,serif" font-size="14.00">fc8</text>
</g>
<!-- fc8\n(InnerProduct)&#45;&gt;fc8 -->
<g id="edge45" class="edge"><title>fc8\n(InnerProduct)&#45;&gt;fc8</title>
<path fill="none" stroke="black" d="M3230.25,-76C3241.38,-76 3253.08,-76 3263.64,-76"/>
<polygon fill="black" stroke="black" points="3263.77,-79.5001 3273.77,-76 3263.77,-72.5001 3263.77,-79.5001"/>
<text text-anchor="middle" x="3252" y="-79.8" font-family="Times,serif" font-size="14.00">2</text>
</g>
<!-- pool2\n(MAX Pooling)\nkernel size: 3\nstride: 2\npad: 0 -->
<g id="node10" class="node"><title>pool2\n(MAX Pooling)\nkernel size: 3\nstride: 2\npad: 0</title>
<polygon fill="#ff9900" stroke="black" points="1152,-114.5 1152,-197.5 1256,-197.5 1256,-114.5 1152,-114.5"/>
<text text-anchor="middle" x="1204" y="-182.3" font-family="Times,serif" font-size="14.00">pool2</text>
<text text-anchor="middle" x="1204" y="-167.3" font-family="Times,serif" font-size="14.00">(MAX Pooling)</text>
<text text-anchor="middle" x="1204" y="-152.3" font-family="Times,serif" font-size="14.00">kernel size: 3</text>
<text text-anchor="middle" x="1204" y="-137.3" font-family="Times,serif" font-size="14.00">stride: 2</text>
<text text-anchor="middle" x="1204" y="-122.3" font-family="Times,serif" font-size="14.00">pad: 0</text>
</g>
<!-- pool2\n(MAX Pooling)\nkernel size: 3\nstride: 2\npad: 0&#45;&gt;pool2 -->
<g id="edge15" class="edge"><title>pool2\n(MAX Pooling)\nkernel size: 3\nstride: 2\npad: 0&#45;&gt;pool2</title>
<path fill="none" stroke="black" d="M1256.31,-156C1265.48,-156 1274.94,-156 1283.81,-156"/>
<polygon fill="black" stroke="black" points="1283.91,-159.5 1293.91,-156 1283.91,-152.5 1283.91,-159.5"/>
</g>
<!-- pool5\n(MAX Pooling)\nkernel size: 3\nstride: 2\npad: 0 -->
<g id="node11" class="node"><title>pool5\n(MAX Pooling)\nkernel size: 3\nstride: 2\npad: 0</title>
<polygon fill="#ff9900" stroke="black" points="2384,-34.5 2384,-117.5 2488,-117.5 2488,-34.5 2384,-34.5"/>
<text text-anchor="middle" x="2436" y="-102.3" font-family="Times,serif" font-size="14.00">pool5</text>
<text text-anchor="middle" x="2436" y="-87.3" font-family="Times,serif" font-size="14.00">(MAX Pooling)</text>
<text text-anchor="middle" x="2436" y="-72.3" font-family="Times,serif" font-size="14.00">kernel size: 3</text>
<text text-anchor="middle" x="2436" y="-57.3" font-family="Times,serif" font-size="14.00">stride: 2</text>
<text text-anchor="middle" x="2436" y="-42.3" font-family="Times,serif" font-size="14.00">pad: 0</text>
</g>
<!-- pool5\n(MAX Pooling)\nkernel size: 3\nstride: 2\npad: 0&#45;&gt;pool5 -->
<g id="edge31" class="edge"><title>pool5\n(MAX Pooling)\nkernel size: 3\nstride: 2\npad: 0&#45;&gt;pool5</title>
<path fill="none" stroke="black" d="M2488.31,-76C2497.48,-76 2506.94,-76 2515.81,-76"/>
<polygon fill="black" stroke="black" points="2515.91,-79.5001 2525.91,-76 2515.91,-72.5001 2515.91,-79.5001"/>
</g>
<!-- conv1 -->
<g id="node28" class="node"><title>conv1</title>
<polygon fill="#e0e0e0" stroke="black" points="402.35,-308.544 402.35,-323.456 381.643,-334 352.357,-334 331.65,-323.456 331.65,-308.544 352.357,-298 381.643,-298 402.35,-308.544"/>
<text text-anchor="middle" x="367" y="-312.3" font-family="Times,serif" font-size="14.00">conv1</text>
</g>
<!-- conv1\n(Convolution)\nkernel size: 11\nstride: 4\npad: 0&#45;&gt;conv1 -->
<g id="edge3" class="edge"><title>conv1\n(Convolution)\nkernel size: 11\nstride: 4\npad: 0&#45;&gt;conv1</title>
<path fill="none" stroke="black" d="M282.294,-316C295.005,-316 308.709,-316 321.276,-316"/>
<polygon fill="black" stroke="black" points="321.517,-319.5 331.517,-316 321.517,-312.5 321.517,-319.5"/>
<text text-anchor="middle" x="307" y="-319.8" font-family="Times,serif" font-size="14.00">96</text>
</g>
<!-- fc7&#45;&gt;relu7\n(ReLU) -->
<g id="edge40" class="edge"><title>fc7&#45;&gt;relu7\n(ReLU)</title>
<path fill="none" stroke="black" d="M3096.02,-83.5435C3111.06,-90.2129 3130.15,-99.8565 3146.43,-108.943"/>
<polygon fill="black" stroke="black" points="3144.72,-111.997 3155.14,-113.911 3148.19,-105.916 3144.72,-111.997"/>
</g>
<!-- fc7&#45;&gt;fc8\n(InnerProduct) -->
<g id="edge44" class="edge"><title>fc7&#45;&gt;fc8\n(InnerProduct)</title>
<path fill="none" stroke="black" d="M3096.02,-76C3104.39,-76 3114.03,-76 3123.73,-76"/>
<polygon fill="black" stroke="black" points="3123.82,-79.5001 3133.82,-76 3123.82,-72.5001 3123.82,-79.5001"/>
</g>
<!-- drop7\n(Dropout) -->
<g id="node37" class="node"><title>drop7\n(Dropout)</title>
<polygon fill="#90ee90" stroke="black" points="3146.5,-0 3146.5,-38 3217.5,-38 3217.5,-0 3146.5,-0"/>
<text text-anchor="middle" x="3182" y="-22.8" font-family="Times,serif" font-size="14.00">drop7</text>
<text text-anchor="middle" x="3182" y="-7.8" font-family="Times,serif" font-size="14.00">(Dropout)</text>
</g>
<!-- fc7&#45;&gt;drop7\n(Dropout) -->
<g id="edge42" class="edge"><title>fc7&#45;&gt;drop7\n(Dropout)</title>
<path fill="none" stroke="black" d="M3086.86,-62.3336C3100.29,-53.9482 3119.71,-43.4429 3137.42,-34.7679"/>
<polygon fill="black" stroke="black" points="3138.99,-37.8988 3146.49,-30.4191 3135.96,-31.5869 3138.99,-37.8988"/>
</g>
<!-- norm1\n(LRN) -->
<g id="node14" class="node"><title>norm1\n(LRN)</title>
<polygon fill="#6495ed" stroke="black" points="686,-217 686,-255 740,-255 740,-217 686,-217"/>
<text text-anchor="middle" x="713" y="-239.8" font-family="Times,serif" font-size="14.00">norm1</text>
<text text-anchor="middle" x="713" y="-224.8" font-family="Times,serif" font-size="14.00">(LRN)</text>
</g>
<!-- norm1 -->
<g id="node34" class="node"><title>norm1</title>
<polygon fill="#e0e0e0" stroke="black" points="853.071,-228.544 853.071,-243.456 831.355,-254 800.645,-254 778.929,-243.456 778.929,-228.544 800.645,-218 831.355,-218 853.071,-228.544"/>
<text text-anchor="middle" x="816" y="-232.3" font-family="Times,serif" font-size="14.00">norm1</text>
</g>
<!-- norm1\n(LRN)&#45;&gt;norm1 -->
<g id="edge9" class="edge"><title>norm1\n(LRN)&#45;&gt;norm1</title>
<path fill="none" stroke="black" d="M740.01,-236C748.773,-236 758.833,-236 768.681,-236"/>
<polygon fill="black" stroke="black" points="768.802,-239.5 778.802,-236 768.802,-232.5 768.802,-239.5"/>
</g>
<!-- relu2\n(ReLU) -->
<g id="node15" class="node"><title>relu2\n(ReLU)</title>
<polygon fill="#90ee90" stroke="black" points="1174.5,-217 1174.5,-255 1233.5,-255 1233.5,-217 1174.5,-217"/>
<text text-anchor="middle" x="1204" y="-239.8" font-family="Times,serif" font-size="14.00">relu2</text>
<text text-anchor="middle" x="1204" y="-224.8" font-family="Times,serif" font-size="14.00">(ReLU)</text>
</g>
<!-- conv2 -->
<g id="node29" class="node"><title>conv2</title>
<polygon fill="#e0e0e0" stroke="black" points="1114.35,-228.544 1114.35,-243.456 1093.64,-254 1064.36,-254 1043.65,-243.456 1043.65,-228.544 1064.36,-218 1093.64,-218 1114.35,-228.544"/>
<text text-anchor="middle" x="1079" y="-232.3" font-family="Times,serif" font-size="14.00">conv2</text>
</g>
<!-- relu2\n(ReLU)&#45;&gt;conv2 -->
<g id="edge13" class="edge"><title>relu2\n(ReLU)&#45;&gt;conv2</title>
<path fill="none" stroke="black" d="M1174.32,-241.81C1159.47,-242.753 1140.99,-242.986 1124.34,-242.511"/>
<polygon fill="black" stroke="black" points="1124.39,-239.01 1114.26,-242.123 1124.12,-246.005 1124.39,-239.01"/>
</g>
<!-- norm2 -->
<g id="node16" class="node"><title>norm2</title>
<polygon fill="#e0e0e0" stroke="black" points="1565.07,-148.544 1565.07,-163.456 1543.36,-174 1512.64,-174 1490.93,-163.456 1490.93,-148.544 1512.64,-138 1543.36,-138 1565.07,-148.544"/>
<text text-anchor="middle" x="1528" y="-152.3" font-family="Times,serif" font-size="14.00">norm2</text>
</g>
<!-- conv3\n(Convolution)\nkernel size: 3\nstride: 1\npad: 1 -->
<g id="node39" class="node"><title>conv3\n(Convolution)\nkernel size: 3\nstride: 1\npad: 1</title>
<polygon fill="#ff5050" stroke="black" points="1604.5,-114.5 1604.5,-197.5 1697.5,-197.5 1697.5,-114.5 1604.5,-114.5"/>
<text text-anchor="middle" x="1651" y="-182.3" font-family="Times,serif" font-size="14.00">conv3</text>
<text text-anchor="middle" x="1651" y="-167.3" font-family="Times,serif" font-size="14.00">(Convolution)</text>
<text text-anchor="middle" x="1651" y="-152.3" font-family="Times,serif" font-size="14.00">kernel size: 3</text>
<text text-anchor="middle" x="1651" y="-137.3" font-family="Times,serif" font-size="14.00">stride: 1</text>
<text text-anchor="middle" x="1651" y="-122.3" font-family="Times,serif" font-size="14.00">pad: 1</text>
</g>
<!-- norm2&#45;&gt;conv3\n(Convolution)\nkernel size: 3\nstride: 1\npad: 1 -->
<g id="edge18" class="edge"><title>norm2&#45;&gt;conv3\n(Convolution)\nkernel size: 3\nstride: 1\npad: 1</title>
<path fill="none" stroke="black" d="M1565.3,-156C1574.4,-156 1584.36,-156 1594.17,-156"/>
<polygon fill="black" stroke="black" points="1594.28,-159.5 1604.28,-156 1594.28,-152.5 1594.28,-159.5"/>
</g>
<!-- fc7\n(InnerProduct) -->
<g id="node18" class="node"><title>fc7\n(InnerProduct)</title>
<polygon fill="#cc33ff" stroke="black" points="2882,-57 2882,-95 2978,-95 2978,-57 2882,-57"/>
<text text-anchor="middle" x="2930" y="-79.8" font-family="Times,serif" font-size="14.00">fc7</text>
<text text-anchor="middle" x="2930" y="-64.8" font-family="Times,serif" font-size="14.00">(InnerProduct)</text>
</g>
<!-- fc7\n(InnerProduct)&#45;&gt;fc7 -->
<g id="edge39" class="edge"><title>fc7\n(InnerProduct)&#45;&gt;fc7</title>
<path fill="none" stroke="black" d="M2978.15,-76C2995.67,-76 3015.27,-76 3031.68,-76"/>
<polygon fill="black" stroke="black" points="3031.94,-79.5001 3041.94,-76 3031.94,-72.5001 3031.94,-79.5001"/>
<text text-anchor="middle" x="3010" y="-79.8" font-family="Times,serif" font-size="14.00">4096</text>
</g>
<!-- norm2\n(LRN)&#45;&gt;norm2 -->
<g id="edge17" class="edge"><title>norm2\n(LRN)&#45;&gt;norm2</title>
<path fill="none" stroke="black" d="M1452.01,-156C1460.77,-156 1470.83,-156 1480.68,-156"/>
<polygon fill="black" stroke="black" points="1480.8,-159.5 1490.8,-156 1480.8,-152.5 1480.8,-159.5"/>
</g>
<!-- conv5&#45;&gt;relu5\n(ReLU) -->
<g id="edge28" class="edge"><title>conv5&#45;&gt;relu5\n(ReLU)</title>
<path fill="none" stroke="black" d="M2346.26,-149.877C2361.77,-149.114 2380.18,-149.048 2396.2,-149.676"/>
<polygon fill="black" stroke="black" points="2396.16,-153.179 2406.32,-150.19 2396.51,-146.188 2396.16,-153.179"/>
</g>
<!-- conv5&#45;&gt;pool5\n(MAX Pooling)\nkernel size: 3\nstride: 2\npad: 0 -->
<g id="edge30" class="edge"><title>conv5&#45;&gt;pool5\n(MAX Pooling)\nkernel size: 3\nstride: 2\npad: 0</title>
<path fill="none" stroke="black" d="M2333.71,-141.882C2345.35,-134.307 2360.33,-124.563 2375.18,-114.904"/>
<polygon fill="black" stroke="black" points="2377.41,-117.63 2383.89,-109.244 2373.6,-111.762 2377.41,-117.63"/>
</g>
<!-- relu1\n(ReLU) -->
<g id="node21" class="node"><title>relu1\n(ReLU)</title>
<polygon fill="#90ee90" stroke="black" points="462.5,-297 462.5,-335 521.5,-335 521.5,-297 462.5,-297"/>
<text text-anchor="middle" x="492" y="-319.8" font-family="Times,serif" font-size="14.00">relu1</text>
<text text-anchor="middle" x="492" y="-304.8" font-family="Times,serif" font-size="14.00">(ReLU)</text>
</g>
<!-- relu1\n(ReLU)&#45;&gt;conv1 -->
<g id="edge5" class="edge"><title>relu1\n(ReLU)&#45;&gt;conv1</title>
<path fill="none" stroke="black" d="M462.324,-321.81C447.467,-322.753 428.994,-322.986 412.345,-322.511"/>
<polygon fill="black" stroke="black" points="412.389,-319.01 402.262,-322.123 412.12,-326.005 412.389,-319.01"/>
</g>
<!-- conv3 -->
<g id="node22" class="node"><title>conv3</title>
<polygon fill="#e0e0e0" stroke="black" points="1826.35,-148.544 1826.35,-163.456 1805.64,-174 1776.36,-174 1755.65,-163.456 1755.65,-148.544 1776.36,-138 1805.64,-138 1826.35,-148.544"/>
<text text-anchor="middle" x="1791" y="-152.3" font-family="Times,serif" font-size="14.00">conv3</text>
</g>
<!-- relu3\n(ReLU) -->
<g id="node31" class="node"><title>relu3\n(ReLU)</title>
<polygon fill="#90ee90" stroke="black" points="1881.5,-137 1881.5,-175 1940.5,-175 1940.5,-137 1881.5,-137"/>
<text text-anchor="middle" x="1911" y="-159.8" font-family="Times,serif" font-size="14.00">relu3</text>
<text text-anchor="middle" x="1911" y="-144.8" font-family="Times,serif" font-size="14.00">(ReLU)</text>
</g>
<!-- conv3&#45;&gt;relu3\n(ReLU) -->
<g id="edge20" class="edge"><title>conv3&#45;&gt;relu3\n(ReLU)</title>
<path fill="none" stroke="black" d="M1826.45,-149.799C1840.46,-149.135 1856.72,-149.073 1871.16,-149.613"/>
<polygon fill="black" stroke="black" points="1871.12,-153.116 1881.28,-150.112 1871.47,-146.124 1871.12,-153.116"/>
</g>
<!-- conv4\n(Convolution)\nkernel size: 3\nstride: 1\npad: 1 -->
<g id="node35" class="node"><title>conv4\n(Convolution)\nkernel size: 3\nstride: 1\npad: 1</title>
<polygon fill="#ff5050" stroke="black" points="1864.5,-34.5 1864.5,-117.5 1957.5,-117.5 1957.5,-34.5 1864.5,-34.5"/>
<text text-anchor="middle" x="1911" y="-102.3" font-family="Times,serif" font-size="14.00">conv4</text>
<text text-anchor="middle" x="1911" y="-87.3" font-family="Times,serif" font-size="14.00">(Convolution)</text>
<text text-anchor="middle" x="1911" y="-72.3" font-family="Times,serif" font-size="14.00">kernel size: 3</text>
<text text-anchor="middle" x="1911" y="-57.3" font-family="Times,serif" font-size="14.00">stride: 1</text>
<text text-anchor="middle" x="1911" y="-42.3" font-family="Times,serif" font-size="14.00">pad: 1</text>
</g>
<!-- conv3&#45;&gt;conv4\n(Convolution)\nkernel size: 3\nstride: 1\npad: 1 -->
<g id="edge22" class="edge"><title>conv3&#45;&gt;conv4\n(Convolution)\nkernel size: 3\nstride: 1\npad: 1</title>
<path fill="none" stroke="black" d="M1813.1,-141.698C1825.07,-133.583 1840.64,-123.02 1855.8,-112.746"/>
<polygon fill="black" stroke="black" points="1857.84,-115.594 1864.15,-107.086 1853.91,-109.8 1857.84,-115.594"/>
</g>
<!-- data\n(Input) -->
<g id="node23" class="node"><title>data\n(Input)</title>
<polygon fill="#6495ed" stroke="black" points="0,-297 0,-335 54,-335 54,-297 0,-297"/>
<text text-anchor="middle" x="27" y="-319.8" font-family="Times,serif" font-size="14.00">data</text>
<text text-anchor="middle" x="27" y="-304.8" font-family="Times,serif" font-size="14.00">(Input)</text>
</g>
<!-- data\n(Input)&#45;&gt;data -->
<g id="edge1" class="edge"><title>data\n(Input)&#45;&gt;data</title>
<path fill="none" stroke="black" d="M54.321,-316C63.0166,-316 72.8561,-316 82.189,-316"/>
<polygon fill="black" stroke="black" points="82.423,-319.5 92.4229,-316 82.4229,-312.5 82.423,-319.5"/>
</g>
<!-- pool1 -->
<g id="node24" class="node"><title>pool1</title>
<polygon fill="#e0e0e0" stroke="black" points="648.128,-228.544 648.128,-243.456 628.722,-254 601.278,-254 581.872,-243.456 581.872,-228.544 601.278,-218 628.722,-218 648.128,-228.544"/>
<text text-anchor="middle" x="615" y="-232.3" font-family="Times,serif" font-size="14.00">pool1</text>
</g>
<!-- pool1&#45;&gt;norm1\n(LRN) -->
<g id="edge8" class="edge"><title>pool1&#45;&gt;norm1\n(LRN)</title>
<path fill="none" stroke="black" d="M648.234,-236C657.003,-236 666.563,-236 675.549,-236"/>
<polygon fill="black" stroke="black" points="675.752,-239.5 685.752,-236 675.752,-232.5 675.752,-239.5"/>
</g>
<!-- drop6\n(Dropout) -->
<g id="node25" class="node"><title>drop6\n(Dropout)</title>
<polygon fill="#90ee90" stroke="black" points="2894.5,-114 2894.5,-152 2965.5,-152 2965.5,-114 2894.5,-114"/>
<text text-anchor="middle" x="2930" y="-136.8" font-family="Times,serif" font-size="14.00">drop6</text>
<text text-anchor="middle" x="2930" y="-121.8" font-family="Times,serif" font-size="14.00">(Dropout)</text>
</g>
<!-- fc6 -->
<g id="node26" class="node"><title>fc6</title>
<polygon fill="#e0e0e0" stroke="black" points="2844,-68.5442 2844,-83.4558 2828.18,-94 2805.82,-94 2790,-83.4558 2790,-68.5442 2805.82,-58 2828.18,-58 2844,-68.5442"/>
<text text-anchor="middle" x="2817" y="-72.3" font-family="Times,serif" font-size="14.00">fc6</text>
</g>
<!-- drop6\n(Dropout)&#45;&gt;fc6 -->
<g id="edge37" class="edge"><title>drop6\n(Dropout)&#45;&gt;fc6</title>
<path fill="none" stroke="black" d="M2894.49,-121.581C2878.07,-113.882 2858.76,-103.801 2843.66,-94.9704"/>
<polygon fill="black" stroke="black" points="2845.23,-91.8312 2834.86,-89.6664 2841.62,-97.8264 2845.23,-91.8312"/>
</g>
<!-- fc6&#45;&gt;fc7\n(InnerProduct) -->
<g id="edge38" class="edge"><title>fc6&#45;&gt;fc7\n(InnerProduct)</title>
<path fill="none" stroke="black" d="M2844.02,-76C2852.39,-76 2862.03,-76 2871.73,-76"/>
<polygon fill="black" stroke="black" points="2871.82,-79.5001 2881.82,-76 2871.82,-72.5001 2871.82,-79.5001"/>
</g>
<!-- fc6&#45;&gt;drop6\n(Dropout) -->
<g id="edge36" class="edge"><title>fc6&#45;&gt;drop6\n(Dropout)</title>
<path fill="none" stroke="black" d="M2844.02,-83.5435C2859.06,-90.2129 2878.15,-99.8565 2894.43,-108.943"/>
<polygon fill="black" stroke="black" points="2892.72,-111.997 2903.14,-113.911 2896.19,-105.916 2892.72,-111.997"/>
</g>
<!-- relu6\n(ReLU) -->
<g id="node27" class="node"><title>relu6\n(ReLU)</title>
<polygon fill="#90ee90" stroke="black" points="2900.5,-0 2900.5,-38 2959.5,-38 2959.5,-0 2900.5,-0"/>
<text text-anchor="middle" x="2930" y="-22.8" font-family="Times,serif" font-size="14.00">relu6</text>
<text text-anchor="middle" x="2930" y="-7.8" font-family="Times,serif" font-size="14.00">(ReLU)</text>
</g>
<!-- fc6&#45;&gt;relu6\n(ReLU) -->
<g id="edge34" class="edge"><title>fc6&#45;&gt;relu6\n(ReLU)</title>
<path fill="none" stroke="black" d="M2834.86,-62.3336C2849.76,-53.025 2872.05,-41.1041 2891.2,-31.9745"/>
<polygon fill="black" stroke="black" points="2892.71,-35.1319 2900.3,-27.7407 2889.76,-28.7849 2892.71,-35.1319"/>
</g>
<!-- relu6\n(ReLU)&#45;&gt;fc6 -->
<g id="edge35" class="edge"><title>relu6\n(ReLU)&#45;&gt;fc6</title>
<path fill="none" stroke="black" d="M2903.14,-38.0893C2888.28,-46.7667 2869.4,-56.6333 2853.2,-64.2546"/>
<polygon fill="black" stroke="black" points="2851.66,-61.1114 2844.02,-68.4565 2854.57,-67.4761 2851.66,-61.1114"/>
</g>
<!-- conv1&#45;&gt;relu1\n(ReLU) -->
<g id="edge4" class="edge"><title>conv1&#45;&gt;relu1\n(ReLU)</title>
<path fill="none" stroke="black" d="M402.262,-309.877C417.773,-309.114 436.18,-309.048 452.198,-309.676"/>
<polygon fill="black" stroke="black" points="452.16,-313.179 462.324,-310.19 452.515,-306.188 452.16,-313.179"/>
</g>
<!-- pool1\n(MAX Pooling)\nkernel size: 3\nstride: 2\npad: 0 -->
<g id="node38" class="node"><title>pool1\n(MAX Pooling)\nkernel size: 3\nstride: 2\npad: 0</title>
<polygon fill="#ff9900" stroke="black" points="440,-194.5 440,-277.5 544,-277.5 544,-194.5 440,-194.5"/>
<text text-anchor="middle" x="492" y="-262.3" font-family="Times,serif" font-size="14.00">pool1</text>
<text text-anchor="middle" x="492" y="-247.3" font-family="Times,serif" font-size="14.00">(MAX Pooling)</text>
<text text-anchor="middle" x="492" y="-232.3" font-family="Times,serif" font-size="14.00">kernel size: 3</text>
<text text-anchor="middle" x="492" y="-217.3" font-family="Times,serif" font-size="14.00">stride: 2</text>
<text text-anchor="middle" x="492" y="-202.3" font-family="Times,serif" font-size="14.00">pad: 0</text>
</g>
<!-- conv1&#45;&gt;pool1\n(MAX Pooling)\nkernel size: 3\nstride: 2\npad: 0 -->
<g id="edge6" class="edge"><title>conv1&#45;&gt;pool1\n(MAX Pooling)\nkernel size: 3\nstride: 2\npad: 0</title>
<path fill="none" stroke="black" d="M389.707,-301.882C401.352,-294.307 416.334,-284.563 431.185,-274.904"/>
<polygon fill="black" stroke="black" points="433.413,-277.63 439.887,-269.244 429.596,-271.762 433.413,-277.63"/>
</g>
<!-- conv2&#45;&gt;pool2\n(MAX Pooling)\nkernel size: 3\nstride: 2\npad: 0 -->
<g id="edge14" class="edge"><title>conv2&#45;&gt;pool2\n(MAX Pooling)\nkernel size: 3\nstride: 2\npad: 0</title>
<path fill="none" stroke="black" d="M1101.71,-221.882C1113.35,-214.307 1128.33,-204.563 1143.18,-194.904"/>
<polygon fill="black" stroke="black" points="1145.41,-197.63 1151.89,-189.244 1141.6,-191.762 1145.41,-197.63"/>
</g>
<!-- conv2&#45;&gt;relu2\n(ReLU) -->
<g id="edge12" class="edge"><title>conv2&#45;&gt;relu2\n(ReLU)</title>
<path fill="none" stroke="black" d="M1114.26,-229.877C1129.77,-229.114 1148.18,-229.048 1164.2,-229.676"/>
<polygon fill="black" stroke="black" points="1164.16,-233.179 1174.32,-230.19 1164.51,-226.188 1164.16,-233.179"/>
</g>
<!-- fc6\n(InnerProduct)&#45;&gt;fc6 -->
<g id="edge33" class="edge"><title>fc6\n(InnerProduct)&#45;&gt;fc6</title>
<path fill="none" stroke="black" d="M2726.15,-76C2743.67,-76 2763.27,-76 2779.68,-76"/>
<polygon fill="black" stroke="black" points="2779.94,-79.5001 2789.94,-76 2779.94,-72.5001 2779.94,-79.5001"/>
<text text-anchor="middle" x="2758" y="-79.8" font-family="Times,serif" font-size="14.00">4096</text>
</g>
<!-- relu3\n(ReLU)&#45;&gt;conv3 -->
<g id="edge21" class="edge"><title>relu3\n(ReLU)&#45;&gt;conv3</title>
<path fill="none" stroke="black" d="M1881.28,-161.888C1867.85,-162.727 1851.54,-162.954 1836.56,-162.567"/>
<polygon fill="black" stroke="black" points="1836.57,-159.065 1826.45,-162.201 1836.31,-166.061 1836.57,-159.065"/>
</g>
<!-- conv2\n(Convolution)\nkernel size: 5\nstride: 1\npad: 2 -->
<g id="node32" class="node"><title>conv2\n(Convolution)\nkernel size: 5\nstride: 1\npad: 2</title>
<polygon fill="#ff5050" stroke="black" points="892.5,-194.5 892.5,-277.5 985.5,-277.5 985.5,-194.5 892.5,-194.5"/>
<text text-anchor="middle" x="939" y="-262.3" font-family="Times,serif" font-size="14.00">conv2</text>
<text text-anchor="middle" x="939" y="-247.3" font-family="Times,serif" font-size="14.00">(Convolution)</text>
<text text-anchor="middle" x="939" y="-232.3" font-family="Times,serif" font-size="14.00">kernel size: 5</text>
<text text-anchor="middle" x="939" y="-217.3" font-family="Times,serif" font-size="14.00">stride: 1</text>
<text text-anchor="middle" x="939" y="-202.3" font-family="Times,serif" font-size="14.00">pad: 2</text>
</g>
<!-- conv2\n(Convolution)\nkernel size: 5\nstride: 1\npad: 2&#45;&gt;conv2 -->
<g id="edge11" class="edge"><title>conv2\n(Convolution)\nkernel size: 5\nstride: 1\npad: 2&#45;&gt;conv2</title>
<path fill="none" stroke="black" d="M985.569,-236C1000.88,-236 1017.93,-236 1033.18,-236"/>
<polygon fill="black" stroke="black" points="1033.41,-239.5 1043.41,-236 1033.41,-232.5 1033.41,-239.5"/>
<text text-anchor="middle" x="1015" y="-239.8" font-family="Times,serif" font-size="14.00">256</text>
</g>
<!-- fc8&#45;&gt;prob\n(Softmax) -->
<g id="edge46" class="edge"><title>fc8&#45;&gt;prob\n(Softmax)</title>
<path fill="none" stroke="black" d="M3328.01,-76C3336.51,-76 3346.21,-76 3355.7,-76"/>
<polygon fill="black" stroke="black" points="3355.86,-79.5001 3365.86,-76 3355.86,-72.5001 3355.86,-79.5001"/>
</g>
<!-- norm1&#45;&gt;conv2\n(Convolution)\nkernel size: 5\nstride: 1\npad: 2 -->
<g id="edge10" class="edge"><title>norm1&#45;&gt;conv2\n(Convolution)\nkernel size: 5\nstride: 1\npad: 2</title>
<path fill="none" stroke="black" d="M853.304,-236C862.397,-236 872.363,-236 882.165,-236"/>
<polygon fill="black" stroke="black" points="882.277,-239.5 892.277,-236 882.277,-232.5 882.277,-239.5"/>
</g>
<!-- conv4\n(Convolution)\nkernel size: 3\nstride: 1\npad: 1&#45;&gt;conv4 -->
<g id="edge23" class="edge"><title>conv4\n(Convolution)\nkernel size: 3\nstride: 1\npad: 1&#45;&gt;conv4</title>
<path fill="none" stroke="black" d="M1957.57,-76C1972.88,-76 1989.93,-76 2005.18,-76"/>
<polygon fill="black" stroke="black" points="2005.41,-79.5001 2015.41,-76 2005.41,-72.5001 2005.41,-79.5001"/>
<text text-anchor="middle" x="1987" y="-79.8" font-family="Times,serif" font-size="14.00">384</text>
</g>
<!-- relu4\n(ReLU)&#45;&gt;conv4 -->
<g id="edge25" class="edge"><title>relu4\n(ReLU)&#45;&gt;conv4</title>
<path fill="none" stroke="black" d="M2141.28,-81.8877C2127.85,-82.7274 2111.54,-82.9538 2096.56,-82.567"/>
<polygon fill="black" stroke="black" points="2096.57,-79.0651 2086.45,-82.2011 2096.31,-86.0605 2096.57,-79.0651"/>
</g>
<!-- drop7\n(Dropout)&#45;&gt;fc7 -->
<g id="edge43" class="edge"><title>drop7\n(Dropout)&#45;&gt;fc7</title>
<path fill="none" stroke="black" d="M3155.14,-38.0893C3140.28,-46.7667 3121.4,-56.6333 3105.2,-64.2546"/>
<polygon fill="black" stroke="black" points="3103.66,-61.1114 3096.02,-68.4565 3106.57,-67.4761 3103.66,-61.1114"/>
</g>
<!-- pool1\n(MAX Pooling)\nkernel size: 3\nstride: 2\npad: 0&#45;&gt;pool1 -->
<g id="edge7" class="edge"><title>pool1\n(MAX Pooling)\nkernel size: 3\nstride: 2\npad: 0&#45;&gt;pool1</title>
<path fill="none" stroke="black" d="M544.315,-236C553.481,-236 562.936,-236 571.81,-236"/>
<polygon fill="black" stroke="black" points="571.909,-239.5 581.909,-236 571.909,-232.5 571.909,-239.5"/>
</g>
<!-- conv3\n(Convolution)\nkernel size: 3\nstride: 1\npad: 1&#45;&gt;conv3 -->
<g id="edge19" class="edge"><title>conv3\n(Convolution)\nkernel size: 3\nstride: 1\npad: 1&#45;&gt;conv3</title>
<path fill="none" stroke="black" d="M1697.57,-156C1712.88,-156 1729.93,-156 1745.18,-156"/>
<polygon fill="black" stroke="black" points="1745.41,-159.5 1755.41,-156 1745.41,-152.5 1745.41,-159.5"/>
<text text-anchor="middle" x="1727" y="-159.8" font-family="Times,serif" font-size="14.00">384</text>
</g>
</g>
</svg>
