<?xml version="1.0" encoding="UTF-8" standalone="no"?>
<!DOCTYPE svg PUBLIC "-//W3C//DTD SVG 1.1//EN"
 "http://www.w3.org/Graphics/SVG/1.1/DTD/svg11.dtd">
<!-- Generated by graphviz version 2.36.0 (20140111.2315)
 -->
<!-- Title: CaffeNet_b Pages: 1 -->
<svg width="3736pt" height="259pt"
 viewBox="0.00 0.00 3736.00 259.00" xmlns="http://www.w3.org/2000/svg" xmlns:xlink="http://www.w3.org/1999/xlink">
<g id="graph0" class="graph" transform="scale(1 1) rotate(0) translate(4 255)">
<title>CaffeNet_b</title>
<polygon fill="white" stroke="none" points="-4,4 -4,-255 3732,-255 3732,4 -4,4"/>
<!-- conv4 -->
<g id="node1" class="node"><title>conv4</title>
<polygon fill="#e0e0e0" stroke="black" points="2200.35,-160.544 2200.35,-175.456 2179.64,-186 2150.36,-186 2129.65,-175.456 2129.65,-160.544 2150.36,-150 2179.64,-150 2200.35,-160.544"/>
<text text-anchor="middle" x="2165" y="-164.3" font-family="Times,serif" font-size="14.00">conv4</text>
</g>
<!-- conv5\n(Convolution)\nkernel size: 3\nstride: 1\npad: 1 -->
<g id="node5" class="node"><title>conv5\n(Convolution)\nkernel size: 3\nstride: 1\npad: 1</title>
<polygon fill="#ff5050" stroke="black" points="2238.5,-87.5 2238.5,-170.5 2331.5,-170.5 2331.5,-87.5 2238.5,-87.5"/>
<text text-anchor="middle" x="2285" y="-155.3" font-family="Times,serif" font-size="14.00">conv5</text>
<text text-anchor="middle" x="2285" y="-140.3" font-family="Times,serif" font-size="14.00">(Convolution)</text>
<text text-anchor="middle" x="2285" y="-125.3" font-family="Times,serif" font-size="14.00">kernel size: 3</text>
<text text-anchor="middle" x="2285" y="-110.3" font-family="Times,serif" font-size="14.00">stride: 1</text>
<text text-anchor="middle" x="2285" y="-95.3" font-family="Times,serif" font-size="14.00">pad: 1</text>
</g>
<!-- conv4&#45;&gt;conv5\n(Convolution)\nkernel size: 3\nstride: 1\npad: 1 -->
<g id="edge29" class="edge"><title>conv4&#45;&gt;conv5\n(Convolution)\nkernel size: 3\nstride: 1\npad: 1</title>
<path fill="none" stroke="black" d="M2195.78,-158.159C2205.7,-154.878 2217.11,-151.108 2228.35,-147.393"/>
<polygon fill="black" stroke="black" points="2229.75,-150.617 2238.15,-144.155 2227.55,-143.97 2229.75,-150.617"/>
</g>
<!-- relu4\n(ReLU) -->
<g id="node39" class="node"><title>relu4\n(ReLU)</title>
<polygon fill="#90ee90" stroke="black" points="2255.5,-190 2255.5,-228 2314.5,-228 2314.5,-190 2255.5,-190"/>
<text text-anchor="middle" x="2285" y="-212.8" font-family="Times,serif" font-size="14.00">relu4</text>
<text text-anchor="middle" x="2285" y="-197.8" font-family="Times,serif" font-size="14.00">(ReLU)</text>
</g>
<!-- conv4&#45;&gt;relu4\n(ReLU) -->
<g id="edge27" class="edge"><title>conv4&#45;&gt;relu4\n(ReLU)</title>
<path fill="none" stroke="black" d="M2200.45,-173.768C2214.6,-178.014 2231.04,-183.671 2245.58,-189.278"/>
<polygon fill="black" stroke="black" points="2244.7,-192.696 2255.28,-193.135 2247.28,-186.19 2244.7,-192.696"/>
</g>
<!-- data -->
<g id="node2" class="node"><title>data</title>
<polygon fill="#e0e0e0" stroke="black" points="201.373,-148.544 201.373,-163.456 185.338,-174 162.662,-174 146.627,-163.456 146.627,-148.544 162.662,-138 185.338,-138 201.373,-148.544"/>
<text text-anchor="middle" x="174" y="-152.3" font-family="Times,serif" font-size="14.00">data</text>
</g>
<!-- conv1\n(Convolution)\nkernel size: 11\nstride: 4\npad: 0 -->
<g id="node10" class="node"><title>conv1\n(Convolution)\nkernel size: 11\nstride: 4\npad: 0</title>
<polygon fill="#ff5050" stroke="black" points="300,-120.5 300,-203.5 396,-203.5 396,-120.5 300,-120.5"/>
<text text-anchor="middle" x="348" y="-188.3" font-family="Times,serif" font-size="14.00">conv1</text>
<text text-anchor="middle" x="348" y="-173.3" font-family="Times,serif" font-size="14.00">(Convolution)</text>
<text text-anchor="middle" x="348" y="-158.3" font-family="Times,serif" font-size="14.00">kernel size: 11</text>
<text text-anchor="middle" x="348" y="-143.3" font-family="Times,serif" font-size="14.00">stride: 4</text>
<text text-anchor="middle" x="348" y="-128.3" font-family="Times,serif" font-size="14.00">pad: 0</text>
</g>
<!-- data&#45;&gt;conv1\n(Convolution)\nkernel size: 11\nstride: 4\npad: 0 -->
<g id="edge5" class="edge"><title>data&#45;&gt;conv1\n(Convolution)\nkernel size: 11\nstride: 4\npad: 0</title>
<path fill="none" stroke="black" d="M201.498,-156.924C224.848,-157.739 259.675,-158.954 289.403,-159.991"/>
<polygon fill="black" stroke="black" points="289.562,-163.498 299.678,-160.349 289.806,-156.503 289.562,-163.498"/>
</g>
<!-- pool2 -->
<g id="node3" class="node"><title>pool2</title>
<polygon fill="#e0e0e0" stroke="black" points="1474.13,-104.544 1474.13,-119.456 1454.72,-130 1427.28,-130 1407.87,-119.456 1407.87,-104.544 1427.28,-94 1454.72,-94 1474.13,-104.544"/>
<text text-anchor="middle" x="1441" y="-108.3" font-family="Times,serif" font-size="14.00">pool2</text>
</g>
<!-- norm2\n(LRN) -->
<g id="node16" class="node"><title>norm2\n(LRN)</title>
<polygon fill="#6495ed" stroke="black" points="1512,-93 1512,-131 1566,-131 1566,-93 1512,-93"/>
<text text-anchor="middle" x="1539" y="-115.8" font-family="Times,serif" font-size="14.00">norm2</text>
<text text-anchor="middle" x="1539" y="-100.8" font-family="Times,serif" font-size="14.00">(LRN)</text>
</g>
<!-- pool2&#45;&gt;norm2\n(LRN) -->
<g id="edge19" class="edge"><title>pool2&#45;&gt;norm2\n(LRN)</title>
<path fill="none" stroke="black" d="M1474.23,-112C1483,-112 1492.56,-112 1501.55,-112"/>
<polygon fill="black" stroke="black" points="1501.75,-115.5 1511.75,-112 1501.75,-108.5 1501.75,-115.5"/>
</g>
<!-- relu7\n(ReLU) -->
<g id="node4" class="node"><title>relu7\n(ReLU)</title>
<polygon fill="#90ee90" stroke="black" points="3266.5,-128 3266.5,-166 3325.5,-166 3325.5,-128 3266.5,-128"/>
<text text-anchor="middle" x="3296" y="-150.8" font-family="Times,serif" font-size="14.00">relu7</text>
<text text-anchor="middle" x="3296" y="-135.8" font-family="Times,serif" font-size="14.00">(ReLU)</text>
</g>
<!-- fc7 -->
<g id="node11" class="node"><title>fc7</title>
<polygon fill="#e0e0e0" stroke="black" points="3210,-139.544 3210,-154.456 3194.18,-165 3171.82,-165 3156,-154.456 3156,-139.544 3171.82,-129 3194.18,-129 3210,-139.544"/>
<text text-anchor="middle" x="3183" y="-143.3" font-family="Times,serif" font-size="14.00">fc7</text>
</g>
<!-- relu7\n(ReLU)&#45;&gt;fc7 -->
<g id="edge44" class="edge"><title>relu7\n(ReLU)&#45;&gt;fc7</title>
<path fill="none" stroke="black" d="M3266.41,-152.989C3252.27,-153.857 3235.05,-153.983 3220.02,-153.366"/>
<polygon fill="black" stroke="black" points="3220.2,-149.871 3210.02,-152.82 3219.82,-156.86 3220.2,-149.871"/>
</g>
<!-- conv5 -->
<g id="node17" class="node"><title>conv5</title>
<polygon fill="#e0e0e0" stroke="black" points="2460.35,-133.544 2460.35,-148.456 2439.64,-159 2410.36,-159 2389.65,-148.456 2389.65,-133.544 2410.36,-123 2439.64,-123 2460.35,-133.544"/>
<text text-anchor="middle" x="2425" y="-137.3" font-family="Times,serif" font-size="14.00">conv5</text>
</g>
<!-- conv5\n(Convolution)\nkernel size: 3\nstride: 1\npad: 1&#45;&gt;conv5 -->
<g id="edge30" class="edge"><title>conv5\n(Convolution)\nkernel size: 3\nstride: 1\npad: 1&#45;&gt;conv5</title>
<path fill="none" stroke="black" d="M2331.57,-132.963C2346.88,-134.294 2363.93,-135.777 2379.18,-137.103"/>
<polygon fill="black" stroke="black" points="2379.14,-140.613 2389.41,-137.992 2379.75,-133.639 2379.14,-140.613"/>
<text text-anchor="middle" x="2361" y="-140.8" font-family="Times,serif" font-size="14.00">256</text>
</g>
<!-- relu5\n(ReLU) -->
<g id="node6" class="node"><title>relu5\n(ReLU)</title>
<polygon fill="#90ee90" stroke="black" points="2520.5,-187 2520.5,-225 2579.5,-225 2579.5,-187 2520.5,-187"/>
<text text-anchor="middle" x="2550" y="-209.8" font-family="Times,serif" font-size="14.00">relu5</text>
<text text-anchor="middle" x="2550" y="-194.8" font-family="Times,serif" font-size="14.00">(ReLU)</text>
</g>
<!-- relu5\n(ReLU)&#45;&gt;conv5 -->
<g id="edge32" class="edge"><title>relu5\n(ReLU)&#45;&gt;conv5</title>
<path fill="none" stroke="black" d="M2520.32,-196.653C2500.28,-187.333 2473.66,-173.249 2453.81,-161.453"/>
<polygon fill="black" stroke="black" points="2455.58,-158.431 2445.22,-156.219 2451.94,-164.409 2455.58,-158.431"/>
</g>
<!-- pool5 -->
<g id="node7" class="node"><title>pool5</title>
<polygon fill="#e0e0e0" stroke="black" points="2706.13,-133.544 2706.13,-148.456 2686.72,-159 2659.28,-159 2639.87,-148.456 2639.87,-133.544 2659.28,-123 2686.72,-123 2706.13,-133.544"/>
<text text-anchor="middle" x="2673" y="-137.3" font-family="Times,serif" font-size="14.00">pool5</text>
</g>
<!-- fc6\n(InnerProduct) -->
<g id="node30" class="node"><title>fc6\n(InnerProduct)</title>
<polygon fill="#cc33ff" stroke="black" points="2744,-126 2744,-164 2840,-164 2840,-126 2744,-126"/>
<text text-anchor="middle" x="2792" y="-148.8" font-family="Times,serif" font-size="14.00">fc6</text>
<text text-anchor="middle" x="2792" y="-133.8" font-family="Times,serif" font-size="14.00">(InnerProduct)</text>
</g>
<!-- pool5&#45;&gt;fc6\n(InnerProduct) -->
<g id="edge35" class="edge"><title>pool5&#45;&gt;fc6\n(InnerProduct)</title>
<path fill="none" stroke="black" d="M2706.28,-142.104C2714.82,-142.396 2724.31,-142.72 2733.75,-143.043"/>
<polygon fill="black" stroke="black" points="2733.82,-146.547 2743.93,-143.391 2734.06,-139.551 2733.82,-146.547"/>
</g>
<!-- pool2\n(MAX Pooling)\nkernel size: 3\nstride: 2\npad: 0 -->
<g id="node8" class="node"><title>pool2\n(MAX Pooling)\nkernel size: 3\nstride: 2\npad: 0</title>
<polygon fill="#ff9900" stroke="black" points="1266,-70.5 1266,-153.5 1370,-153.5 1370,-70.5 1266,-70.5"/>
<text text-anchor="middle" x="1318" y="-138.3" font-family="Times,serif" font-size="14.00">pool2</text>
<text text-anchor="middle" x="1318" y="-123.3" font-family="Times,serif" font-size="14.00">(MAX Pooling)</text>
<text text-anchor="middle" x="1318" y="-108.3" font-family="Times,serif" font-size="14.00">kernel size: 3</text>
<text text-anchor="middle" x="1318" y="-93.3" font-family="Times,serif" font-size="14.00">stride: 2</text>
<text text-anchor="middle" x="1318" y="-78.3" font-family="Times,serif" font-size="14.00">pad: 0</text>
</g>
<!-- pool2\n(MAX Pooling)\nkernel size: 3\nstride: 2\npad: 0&#45;&gt;pool2 -->
<g id="edge18" class="edge"><title>pool2\n(MAX Pooling)\nkernel size: 3\nstride: 2\npad: 0&#45;&gt;pool2</title>
<path fill="none" stroke="black" d="M1370.31,-112C1379.48,-112 1388.94,-112 1397.81,-112"/>
<polygon fill="black" stroke="black" points="1397.91,-115.5 1407.91,-112 1397.91,-108.5 1397.91,-115.5"/>
</g>
<!-- pool5\n(MAX Pooling)\nkernel size: 3\nstride: 2\npad: 0 -->
<g id="node9" class="node"><title>pool5\n(MAX Pooling)\nkernel size: 3\nstride: 2\npad: 0</title>
<polygon fill="#ff9900" stroke="black" points="2498,-84.5 2498,-167.5 2602,-167.5 2602,-84.5 2498,-84.5"/>
<text text-anchor="middle" x="2550" y="-152.3" font-family="Times,serif" font-size="14.00">pool5</text>
<text text-anchor="middle" x="2550" y="-137.3" font-family="Times,serif" font-size="14.00">(MAX Pooling)</text>
<text text-anchor="middle" x="2550" y="-122.3" font-family="Times,serif" font-size="14.00">kernel size: 3</text>
<text text-anchor="middle" x="2550" y="-107.3" font-family="Times,serif" font-size="14.00">stride: 2</text>
<text text-anchor="middle" x="2550" y="-92.3" font-family="Times,serif" font-size="14.00">pad: 0</text>
</g>
<!-- pool5\n(MAX Pooling)\nkernel size: 3\nstride: 2\npad: 0&#45;&gt;pool5 -->
<g id="edge34" class="edge"><title>pool5\n(MAX Pooling)\nkernel size: 3\nstride: 2\npad: 0&#45;&gt;pool5</title>
<path fill="none" stroke="black" d="M2602.31,-132.361C2611.48,-133.498 2620.94,-134.67 2629.81,-135.77"/>
<polygon fill="black" stroke="black" points="2629.55,-139.265 2639.91,-137.022 2630.42,-132.318 2629.55,-139.265"/>
</g>
<!-- conv1 -->
<g id="node26" class="node"><title>conv1</title>
<polygon fill="#e0e0e0" stroke="black" points="516.35,-181.544 516.35,-196.456 495.643,-207 466.357,-207 445.65,-196.456 445.65,-181.544 466.357,-171 495.643,-171 516.35,-181.544"/>
<text text-anchor="middle" x="481" y="-185.3" font-family="Times,serif" font-size="14.00">conv1</text>
</g>
<!-- conv1\n(Convolution)\nkernel size: 11\nstride: 4\npad: 0&#45;&gt;conv1 -->
<g id="edge6" class="edge"><title>conv1\n(Convolution)\nkernel size: 11\nstride: 4\npad: 0&#45;&gt;conv1</title>
<path fill="none" stroke="black" d="M396.294,-171.748C409.132,-174.394 422.984,-177.249 435.652,-179.86"/>
<polygon fill="black" stroke="black" points="435.016,-183.302 445.517,-181.893 436.429,-176.446 435.016,-183.302"/>
<text text-anchor="middle" x="421" y="-181.8" font-family="Times,serif" font-size="14.00">96</text>
</g>
<!-- fc7&#45;&gt;relu7\n(ReLU) -->
<g id="edge43" class="edge"><title>fc7&#45;&gt;relu7\n(ReLU)</title>
<path fill="none" stroke="black" d="M3210.02,-141.18C3223.77,-140.22 3240.91,-140.003 3256.19,-140.529"/>
<polygon fill="black" stroke="black" points="3256.26,-144.036 3266.41,-141.011 3256.59,-137.044 3256.26,-144.036"/>
</g>
<!-- fc8\n(InnerProduct) -->
<g id="node20" class="node"><title>fc8\n(InnerProduct)</title>
<polygon fill="#cc33ff" stroke="black" points="3248,-71 3248,-109 3344,-109 3344,-71 3248,-71"/>
<text text-anchor="middle" x="3296" y="-93.8" font-family="Times,serif" font-size="14.00">fc8</text>
<text text-anchor="middle" x="3296" y="-78.8" font-family="Times,serif" font-size="14.00">(InnerProduct)</text>
</g>
<!-- fc7&#45;&gt;fc8\n(InnerProduct) -->
<g id="edge47" class="edge"><title>fc7&#45;&gt;fc8\n(InnerProduct)</title>
<path fill="none" stroke="black" d="M3205.14,-136.145C3217.43,-129.832 3233.43,-121.615 3248.52,-113.867"/>
<polygon fill="black" stroke="black" points="3250.46,-116.807 3257.76,-109.125 3247.26,-110.58 3250.46,-116.807"/>
</g>
<!-- drop7\n(Dropout) -->
<g id="node40" class="node"><title>drop7\n(Dropout)</title>
<polygon fill="#90ee90" stroke="black" points="3260.5,-185 3260.5,-223 3331.5,-223 3331.5,-185 3260.5,-185"/>
<text text-anchor="middle" x="3296" y="-207.8" font-family="Times,serif" font-size="14.00">drop7</text>
<text text-anchor="middle" x="3296" y="-192.8" font-family="Times,serif" font-size="14.00">(Dropout)</text>
</g>
<!-- fc7&#45;&gt;drop7\n(Dropout) -->
<g id="edge45" class="edge"><title>fc7&#45;&gt;drop7\n(Dropout)</title>
<path fill="none" stroke="black" d="M3210.03,-151.909C3215.93,-154.755 3222.18,-158 3228,-161 3239.71,-167.033 3252.61,-173.597 3263.94,-179.888"/>
<polygon fill="black" stroke="black" points="3262.21,-182.934 3272.63,-184.859 3265.69,-176.857 3262.21,-182.934"/>
</g>
<!-- norm1\n(LRN) -->
<g id="node12" class="node"><title>norm1\n(LRN)</title>
<polygon fill="#6495ed" stroke="black" points="800,-93 800,-131 854,-131 854,-93 800,-93"/>
<text text-anchor="middle" x="827" y="-115.8" font-family="Times,serif" font-size="14.00">norm1</text>
<text text-anchor="middle" x="827" y="-100.8" font-family="Times,serif" font-size="14.00">(LRN)</text>
</g>
<!-- norm1 -->
<g id="node36" class="node"><title>norm1</title>
<polygon fill="#e0e0e0" stroke="black" points="967.071,-106.544 967.071,-121.456 945.355,-132 914.645,-132 892.929,-121.456 892.929,-106.544 914.645,-96 945.355,-96 967.071,-106.544"/>
<text text-anchor="middle" x="930" y="-110.3" font-family="Times,serif" font-size="14.00">norm1</text>
</g>
<!-- norm1\n(LRN)&#45;&gt;norm1 -->
<g id="edge12" class="edge"><title>norm1\n(LRN)&#45;&gt;norm1</title>
<path fill="none" stroke="black" d="M854.01,-112.515C862.773,-112.689 872.833,-112.888 882.681,-113.083"/>
<polygon fill="black" stroke="black" points="882.735,-116.584 892.802,-113.283 882.873,-109.586 882.735,-116.584"/>
</g>
<!-- relu2\n(ReLU) -->
<g id="node13" class="node"><title>relu2\n(ReLU)</title>
<polygon fill="#90ee90" stroke="black" points="1288.5,-173 1288.5,-211 1347.5,-211 1347.5,-173 1288.5,-173"/>
<text text-anchor="middle" x="1318" y="-195.8" font-family="Times,serif" font-size="14.00">relu2</text>
<text text-anchor="middle" x="1318" y="-180.8" font-family="Times,serif" font-size="14.00">(ReLU)</text>
</g>
<!-- conv2 -->
<g id="node28" class="node"><title>conv2</title>
<polygon fill="#e0e0e0" stroke="black" points="1228.35,-126.544 1228.35,-141.456 1207.64,-152 1178.36,-152 1157.65,-141.456 1157.65,-126.544 1178.36,-116 1207.64,-116 1228.35,-126.544"/>
<text text-anchor="middle" x="1193" y="-130.3" font-family="Times,serif" font-size="14.00">conv2</text>
</g>
<!-- relu2\n(ReLU)&#45;&gt;conv2 -->
<g id="edge16" class="edge"><title>relu2\n(ReLU)&#45;&gt;conv2</title>
<path fill="none" stroke="black" d="M1288.38,-184.309C1268.78,-176.314 1242.87,-164.109 1223.16,-153.591"/>
<polygon fill="black" stroke="black" points="1224.76,-150.478 1214.31,-148.744 1221.4,-156.618 1224.76,-150.478"/>
</g>
<!-- norm2 -->
<g id="node14" class="node"><title>norm2</title>
<polygon fill="#e0e0e0" stroke="black" points="1679.07,-108.544 1679.07,-123.456 1657.36,-134 1626.64,-134 1604.93,-123.456 1604.93,-108.544 1626.64,-98 1657.36,-98 1679.07,-108.544"/>
<text text-anchor="middle" x="1642" y="-112.3" font-family="Times,serif" font-size="14.00">norm2</text>
</g>
<!-- conv3\n(Convolution)\nkernel size: 3\nstride: 1\npad: 1 -->
<g id="node42" class="node"><title>conv3\n(Convolution)\nkernel size: 3\nstride: 1\npad: 1</title>
<polygon fill="#ff5050" stroke="black" points="1718.5,-81.5 1718.5,-164.5 1811.5,-164.5 1811.5,-81.5 1718.5,-81.5"/>
<text text-anchor="middle" x="1765" y="-149.3" font-family="Times,serif" font-size="14.00">conv3</text>
<text text-anchor="middle" x="1765" y="-134.3" font-family="Times,serif" font-size="14.00">(Convolution)</text>
<text text-anchor="middle" x="1765" y="-119.3" font-family="Times,serif" font-size="14.00">kernel size: 3</text>
<text text-anchor="middle" x="1765" y="-104.3" font-family="Times,serif" font-size="14.00">stride: 1</text>
<text text-anchor="middle" x="1765" y="-89.3" font-family="Times,serif" font-size="14.00">pad: 1</text>
</g>
<!-- norm2&#45;&gt;conv3\n(Convolution)\nkernel size: 3\nstride: 1\npad: 1 -->
<g id="edge21" class="edge"><title>norm2&#45;&gt;conv3\n(Convolution)\nkernel size: 3\nstride: 1\npad: 1</title>
<path fill="none" stroke="black" d="M1679.3,-118.1C1688.4,-118.626 1698.36,-119.203 1708.17,-119.77"/>
<polygon fill="black" stroke="black" points="1708.09,-123.271 1718.28,-120.355 1708.5,-116.283 1708.09,-123.271"/>
</g>
<!-- fc7\n(InnerProduct) -->
<g id="node15" class="node"><title>fc7\n(InnerProduct)</title>
<polygon fill="#cc33ff" stroke="black" points="2996,-99 2996,-137 3092,-137 3092,-99 2996,-99"/>
<text text-anchor="middle" x="3044" y="-121.8" font-family="Times,serif" font-size="14.00">fc7</text>
<text text-anchor="middle" x="3044" y="-106.8" font-family="Times,serif" font-size="14.00">(InnerProduct)</text>
</g>
<!-- fc7\n(InnerProduct)&#45;&gt;fc7 -->
<g id="edge42" class="edge"><title>fc7\n(InnerProduct)&#45;&gt;fc7</title>
<path fill="none" stroke="black" d="M3092.15,-127.98C3109.84,-131.725 3129.64,-135.917 3146.14,-139.41"/>
<polygon fill="black" stroke="black" points="3145.44,-142.838 3155.94,-141.485 3146.89,-135.989 3145.44,-142.838"/>
<text text-anchor="middle" x="3124" y="-141.8" font-family="Times,serif" font-size="14.00">4096</text>
</g>
<!-- norm2\n(LRN)&#45;&gt;norm2 -->
<g id="edge20" class="edge"><title>norm2\n(LRN)&#45;&gt;norm2</title>
<path fill="none" stroke="black" d="M1566.01,-113.03C1574.77,-113.377 1584.83,-113.776 1594.68,-114.166"/>
<polygon fill="black" stroke="black" points="1594.67,-117.668 1604.8,-114.566 1594.95,-110.673 1594.67,-117.668"/>
</g>
<!-- conv5&#45;&gt;relu5\n(ReLU) -->
<g id="edge31" class="edge"><title>conv5&#45;&gt;relu5\n(ReLU)</title>
<path fill="none" stroke="black" d="M2455.77,-150.856C2473.49,-159.15 2496.05,-170.986 2514.54,-181.655"/>
<polygon fill="black" stroke="black" points="2512.85,-184.725 2523.25,-186.779 2516.4,-178.692 2512.85,-184.725"/>
</g>
<!-- conv5&#45;&gt;pool5\n(MAX Pooling)\nkernel size: 3\nstride: 2\npad: 0 -->
<g id="edge33" class="edge"><title>conv5&#45;&gt;pool5\n(MAX Pooling)\nkernel size: 3\nstride: 2\npad: 0</title>
<path fill="none" stroke="black" d="M2460.26,-136.822C2468.82,-135.778 2478.27,-134.626 2487.7,-133.475"/>
<polygon fill="black" stroke="black" points="2488.4,-136.917 2497.9,-132.232 2487.55,-129.968 2488.4,-136.917"/>
</g>
<!-- relu1\n(ReLU) -->
<g id="node18" class="node"><title>relu1\n(ReLU)</title>
<polygon fill="#90ee90" stroke="black" points="576.5,-173 576.5,-211 635.5,-211 635.5,-173 576.5,-173"/>
<text text-anchor="middle" x="606" y="-195.8" font-family="Times,serif" font-size="14.00">relu1</text>
<text text-anchor="middle" x="606" y="-180.8" font-family="Times,serif" font-size="14.00">(ReLU)</text>
</g>
<!-- relu1\n(ReLU)&#45;&gt;conv1 -->
<g id="edge8" class="edge"><title>relu1\n(ReLU)&#45;&gt;conv1</title>
<path fill="none" stroke="black" d="M576.324,-197.111C561.467,-197.691 542.994,-197.474 526.345,-196.593"/>
<polygon fill="black" stroke="black" points="526.462,-193.093 516.262,-195.959 526.023,-200.079 526.462,-193.093"/>
</g>
<!-- conv3 -->
<g id="node19" class="node"><title>conv3</title>
<polygon fill="#e0e0e0" stroke="black" points="1940.35,-126.544 1940.35,-141.456 1919.64,-152 1890.36,-152 1869.65,-141.456 1869.65,-126.544 1890.36,-116 1919.64,-116 1940.35,-126.544"/>
<text text-anchor="middle" x="1905" y="-130.3" font-family="Times,serif" font-size="14.00">conv3</text>
</g>
<!-- relu3\n(ReLU) -->
<g id="node31" class="node"><title>relu3\n(ReLU)</title>
<polygon fill="#90ee90" stroke="black" points="1995.5,-173 1995.5,-211 2054.5,-211 2054.5,-173 1995.5,-173"/>
<text text-anchor="middle" x="2025" y="-195.8" font-family="Times,serif" font-size="14.00">relu3</text>
<text text-anchor="middle" x="2025" y="-180.8" font-family="Times,serif" font-size="14.00">(ReLU)</text>
</g>
<!-- conv3&#45;&gt;relu3\n(ReLU) -->
<g id="edge23" class="edge"><title>conv3&#45;&gt;relu3\n(ReLU)</title>
<path fill="none" stroke="black" d="M1937,-143.216C1952.53,-149.976 1971.42,-159.175 1987.63,-167.836"/>
<polygon fill="black" stroke="black" points="1986.36,-171.131 1996.82,-172.851 1989.72,-164.987 1986.36,-171.131"/>
</g>
<!-- conv4\n(Convolution)\nkernel size: 3\nstride: 1\npad: 1 -->
<g id="node38" class="node"><title>conv4\n(Convolution)\nkernel size: 3\nstride: 1\npad: 1</title>
<polygon fill="#ff5050" stroke="black" points="1978.5,-70.5 1978.5,-153.5 2071.5,-153.5 2071.5,-70.5 1978.5,-70.5"/>
<text text-anchor="middle" x="2025" y="-138.3" font-family="Times,serif" font-size="14.00">conv4</text>
<text text-anchor="middle" x="2025" y="-123.3" font-family="Times,serif" font-size="14.00">(Convolution)</text>
<text text-anchor="middle" x="2025" y="-108.3" font-family="Times,serif" font-size="14.00">kernel size: 3</text>
<text text-anchor="middle" x="2025" y="-93.3" font-family="Times,serif" font-size="14.00">stride: 1</text>
<text text-anchor="middle" x="2025" y="-78.3" font-family="Times,serif" font-size="14.00">pad: 1</text>
</g>
<!-- conv3&#45;&gt;conv4\n(Convolution)\nkernel size: 3\nstride: 1\npad: 1 -->
<g id="edge25" class="edge"><title>conv3&#45;&gt;conv4\n(Convolution)\nkernel size: 3\nstride: 1\npad: 1</title>
<path fill="none" stroke="black" d="M1940.45,-127.578C1949.23,-125.94 1958.9,-124.137 1968.45,-122.357"/>
<polygon fill="black" stroke="black" points="1969.12,-125.791 1978.31,-120.518 1967.84,-118.91 1969.12,-125.791"/>
</g>
<!-- fc8 -->
<g id="node35" class="node"><title>fc8</title>
<polygon fill="#e0e0e0" stroke="black" points="3442,-82.5442 3442,-97.4558 3426.18,-108 3403.82,-108 3388,-97.4558 3388,-82.5442 3403.82,-72 3426.18,-72 3442,-82.5442"/>
<text text-anchor="middle" x="3415" y="-86.3" font-family="Times,serif" font-size="14.00">fc8</text>
</g>
<!-- fc8\n(InnerProduct)&#45;&gt;fc8 -->
<g id="edge48" class="edge"><title>fc8\n(InnerProduct)&#45;&gt;fc8</title>
<path fill="none" stroke="black" d="M3344.25,-90C3355.38,-90 3367.08,-90 3377.64,-90"/>
<polygon fill="black" stroke="black" points="3377.77,-93.5001 3387.77,-90 3377.77,-86.5001 3377.77,-93.5001"/>
<text text-anchor="middle" x="3366" y="-93.8" font-family="Times,serif" font-size="14.00">2</text>
</g>
<!-- pool1 -->
<g id="node21" class="node"><title>pool1</title>
<polygon fill="#e0e0e0" stroke="black" points="762.128,-104.544 762.128,-119.456 742.722,-130 715.278,-130 695.872,-119.456 695.872,-104.544 715.278,-94 742.722,-94 762.128,-104.544"/>
<text text-anchor="middle" x="729" y="-108.3" font-family="Times,serif" font-size="14.00">pool1</text>
</g>
<!-- pool1&#45;&gt;norm1\n(LRN) -->
<g id="edge11" class="edge"><title>pool1&#45;&gt;norm1\n(LRN)</title>
<path fill="none" stroke="black" d="M762.234,-112C771.003,-112 780.563,-112 789.549,-112"/>
<polygon fill="black" stroke="black" points="789.752,-115.5 799.752,-112 789.752,-108.5 789.752,-115.5"/>
</g>
<!-- drop6\n(Dropout) -->
<g id="node22" class="node"><title>drop6\n(Dropout)</title>
<polygon fill="#90ee90" stroke="black" points="3008.5,-156 3008.5,-194 3079.5,-194 3079.5,-156 3008.5,-156"/>
<text text-anchor="middle" x="3044" y="-178.8" font-family="Times,serif" font-size="14.00">drop6</text>
<text text-anchor="middle" x="3044" y="-163.8" font-family="Times,serif" font-size="14.00">(Dropout)</text>
</g>
<!-- fc6 -->
<g id="node23" class="node"><title>fc6</title>
<polygon fill="#e0e0e0" stroke="black" points="2958,-167.544 2958,-182.456 2942.18,-193 2919.82,-193 2904,-182.456 2904,-167.544 2919.82,-157 2942.18,-157 2958,-167.544"/>
<text text-anchor="middle" x="2931" y="-171.3" font-family="Times,serif" font-size="14.00">fc6</text>
</g>
<!-- drop6\n(Dropout)&#45;&gt;fc6 -->
<g id="edge40" class="edge"><title>drop6\n(Dropout)&#45;&gt;fc6</title>
<path fill="none" stroke="black" d="M3008.31,-181.309C2995.61,-181.872 2981.21,-181.896 2968.37,-181.38"/>
<polygon fill="black" stroke="black" points="2968.2,-177.866 2958.02,-180.82 2967.82,-184.856 2968.2,-177.866"/>
</g>
<!-- fc6&#45;&gt;fc7\n(InnerProduct) -->
<g id="edge41" class="edge"><title>fc6&#45;&gt;fc7\n(InnerProduct)</title>
<path fill="none" stroke="black" d="M2953.14,-164.145C2965.43,-157.832 2981.43,-149.615 2996.52,-141.867"/>
<polygon fill="black" stroke="black" points="2998.46,-144.807 3005.76,-137.125 2995.26,-138.58 2998.46,-144.807"/>
</g>
<!-- fc6&#45;&gt;drop6\n(Dropout) -->
<g id="edge39" class="edge"><title>fc6&#45;&gt;drop6\n(Dropout)</title>
<path fill="none" stroke="black" d="M2958.02,-169.18C2969.97,-168.346 2984.49,-168.073 2998.12,-168.361"/>
<polygon fill="black" stroke="black" points="2998.2,-171.865 3008.31,-168.691 2998.43,-164.869 2998.2,-171.865"/>
</g>
<!-- relu6\n(ReLU) -->
<g id="node25" class="node"><title>relu6\n(ReLU)</title>
<polygon fill="#90ee90" stroke="black" points="3014.5,-213 3014.5,-251 3073.5,-251 3073.5,-213 3014.5,-213"/>
<text text-anchor="middle" x="3044" y="-235.8" font-family="Times,serif" font-size="14.00">relu6</text>
<text text-anchor="middle" x="3044" y="-220.8" font-family="Times,serif" font-size="14.00">(ReLU)</text>
</g>
<!-- fc6&#45;&gt;relu6\n(ReLU) -->
<g id="edge37" class="edge"><title>fc6&#45;&gt;relu6\n(ReLU)</title>
<path fill="none" stroke="black" d="M2958.03,-179.909C2963.93,-182.755 2970.18,-186 2976,-189 2987.71,-195.033 3000.61,-201.597 3011.94,-207.888"/>
<polygon fill="black" stroke="black" points="3010.21,-210.934 3020.63,-212.859 3013.69,-204.857 3010.21,-210.934"/>
</g>
<!-- accuracy -->
<g id="node24" class="node"><title>accuracy</title>
<ellipse fill="none" stroke="black" cx="3686" cy="-19" rx="42.4939" ry="18"/>
<text text-anchor="middle" x="3686" y="-15.3" font-family="Times,serif" font-size="14.00">accuracy</text>
</g>
<!-- relu6\n(ReLU)&#45;&gt;fc6 -->
<g id="edge38" class="edge"><title>relu6\n(ReLU)&#45;&gt;fc6</title>
<path fill="none" stroke="black" d="M3014.27,-225.84C3002.41,-220.51 2988.52,-213.451 2976,-207 2969.15,-203.472 2961.72,-199.605 2954.95,-195.681"/>
<polygon fill="black" stroke="black" points="2956.6,-192.583 2946.24,-190.323 2952.93,-198.545 2956.6,-192.583"/>
</g>
<!-- conv1&#45;&gt;relu1\n(ReLU) -->
<g id="edge7" class="edge"><title>conv1&#45;&gt;relu1\n(ReLU)</title>
<path fill="none" stroke="black" d="M516.262,-183.712C531.773,-183.328 550.18,-183.71 566.198,-184.73"/>
<polygon fill="black" stroke="black" points="566.09,-188.232 576.324,-185.49 566.615,-181.251 566.09,-188.232"/>
</g>
<!-- pool1\n(MAX Pooling)\nkernel size: 3\nstride: 2\npad: 0 -->
<g id="node41" class="node"><title>pool1\n(MAX Pooling)\nkernel size: 3\nstride: 2\npad: 0</title>
<polygon fill="#ff9900" stroke="black" points="554,-70.5 554,-153.5 658,-153.5 658,-70.5 554,-70.5"/>
<text text-anchor="middle" x="606" y="-138.3" font-family="Times,serif" font-size="14.00">pool1</text>
<text text-anchor="middle" x="606" y="-123.3" font-family="Times,serif" font-size="14.00">(MAX Pooling)</text>
<text text-anchor="middle" x="606" y="-108.3" font-family="Times,serif" font-size="14.00">kernel size: 3</text>
<text text-anchor="middle" x="606" y="-93.3" font-family="Times,serif" font-size="14.00">stride: 2</text>
<text text-anchor="middle" x="606" y="-78.3" font-family="Times,serif" font-size="14.00">pad: 0</text>
</g>
<!-- conv1&#45;&gt;pool1\n(MAX Pooling)\nkernel size: 3\nstride: 2\npad: 0 -->
<g id="edge9" class="edge"><title>conv1&#45;&gt;pool1\n(MAX Pooling)\nkernel size: 3\nstride: 2\npad: 0</title>
<path fill="none" stroke="black" d="M503.99,-175.234C515.6,-167.966 530.469,-158.658 545.206,-149.432"/>
<polygon fill="black" stroke="black" points="547.224,-152.298 553.843,-144.025 543.51,-146.365 547.224,-152.298"/>
</g>
<!-- label -->
<g id="node27" class="node"><title>label</title>
<polygon fill="#e0e0e0" stroke="black" points="281.002,-34.5442 281.002,-49.4558 263.427,-60 238.573,-60 220.998,-49.4558 220.998,-34.5442 238.573,-24 263.427,-24 281.002,-34.5442"/>
<text text-anchor="middle" x="251" y="-38.3" font-family="Times,serif" font-size="14.00">label</text>
</g>
<!-- loss\n(SoftmaxWithLoss) -->
<g id="node29" class="node"><title>loss\n(SoftmaxWithLoss)</title>
<polygon fill="#6495ed" stroke="black" points="3480.5,-65 3480.5,-103 3605.5,-103 3605.5,-65 3480.5,-65"/>
<text text-anchor="middle" x="3543" y="-87.8" font-family="Times,serif" font-size="14.00">loss</text>
<text text-anchor="middle" x="3543" y="-72.8" font-family="Times,serif" font-size="14.00">(SoftmaxWithLoss)</text>
</g>
<!-- label&#45;&gt;loss\n(SoftmaxWithLoss) -->
<g id="edge53" class="edge"><title>label&#45;&gt;loss\n(SoftmaxWithLoss)</title>
<path fill="none" stroke="black" d="M281.136,-42C314.64,-42 371.292,-42 420,-42 420,-42 420,-42 3416,-42 3443.56,-42 3472.86,-51.1566 3496.25,-60.9189"/>
<polygon fill="black" stroke="black" points="3495,-64.1916 3505.57,-64.9662 3497.79,-57.7713 3495,-64.1916"/>
</g>
<!-- accuracy\n(Accuracy) -->
<g id="node33" class="node"><title>accuracy\n(Accuracy)</title>
<polygon fill="#6495ed" stroke="black" points="3504.5,-0 3504.5,-38 3581.5,-38 3581.5,-0 3504.5,-0"/>
<text text-anchor="middle" x="3543" y="-22.8" font-family="Times,serif" font-size="14.00">accuracy</text>
<text text-anchor="middle" x="3543" y="-7.8" font-family="Times,serif" font-size="14.00">(Accuracy)</text>
</g>
<!-- label&#45;&gt;accuracy\n(Accuracy) -->
<g id="edge50" class="edge"><title>label&#45;&gt;accuracy\n(Accuracy)</title>
<path fill="none" stroke="black" d="M277.78,-32.411C310.409,-21.1538 368.566,-4 420,-4 420,-4 420,-4 3416,-4 3442,-4 3470.81,-7.18874 3494.31,-10.6258"/>
<polygon fill="black" stroke="black" points="3493.96,-14.112 3504.37,-12.1584 3495.01,-7.19189 3493.96,-14.112"/>
</g>
<!-- conv2&#45;&gt;pool2\n(MAX Pooling)\nkernel size: 3\nstride: 2\npad: 0 -->
<g id="edge17" class="edge"><title>conv2&#45;&gt;pool2\n(MAX Pooling)\nkernel size: 3\nstride: 2\npad: 0</title>
<path fill="none" stroke="black" d="M1228.26,-127.872C1236.91,-126.324 1246.47,-124.615 1256.01,-122.91"/>
<polygon fill="black" stroke="black" points="1256.67,-126.346 1265.9,-121.14 1255.44,-119.455 1256.67,-126.346"/>
</g>
<!-- conv2&#45;&gt;relu2\n(ReLU) -->
<g id="edge15" class="edge"><title>conv2&#45;&gt;relu2\n(ReLU)</title>
<path fill="none" stroke="black" d="M1225.68,-142.948C1242.13,-149.796 1262.35,-159.235 1279.57,-168.082"/>
<polygon fill="black" stroke="black" points="1278.31,-171.372 1288.79,-172.917 1281.56,-165.173 1278.31,-171.372"/>
</g>
<!-- loss -->
<g id="node37" class="node"><title>loss</title>
<ellipse fill="none" stroke="black" cx="3686" cy="-84" rx="27" ry="18"/>
<text text-anchor="middle" x="3686" y="-80.3" font-family="Times,serif" font-size="14.00">loss</text>
</g>
<!-- loss\n(SoftmaxWithLoss)&#45;&gt;loss -->
<g id="edge54" class="edge"><title>loss\n(SoftmaxWithLoss)&#45;&gt;loss</title>
<path fill="none" stroke="black" d="M3605.84,-84C3620.56,-84 3635.78,-84 3648.9,-84"/>
<polygon fill="black" stroke="black" points="3648.92,-87.5001 3658.92,-84 3648.92,-80.5001 3648.92,-87.5001"/>
</g>
<!-- fc6\n(InnerProduct)&#45;&gt;fc6 -->
<g id="edge36" class="edge"><title>fc6\n(InnerProduct)&#45;&gt;fc6</title>
<path fill="none" stroke="black" d="M2840.15,-155.324C2857.84,-159.198 2877.64,-163.534 2894.14,-167.148"/>
<polygon fill="black" stroke="black" points="2893.43,-170.574 2903.94,-169.294 2894.92,-163.736 2893.43,-170.574"/>
<text text-anchor="middle" x="2872" y="-169.8" font-family="Times,serif" font-size="14.00">4096</text>
</g>
<!-- relu3\n(ReLU)&#45;&gt;conv3 -->
<g id="edge24" class="edge"><title>relu3\n(ReLU)&#45;&gt;conv3</title>
<path fill="none" stroke="black" d="M1995.34,-183.795C1976.89,-175.883 1953,-164.142 1934.57,-153.923"/>
<polygon fill="black" stroke="black" points="1936.17,-150.806 1925.75,-148.9 1932.71,-156.889 1936.17,-150.806"/>
</g>
<!-- data\n(Data) -->
<g id="node32" class="node"><title>data\n(Data)</title>
<polygon fill="#6495ed" stroke="black" points="0,-80 0,-118 54,-118 54,-80 0,-80"/>
<text text-anchor="middle" x="27" y="-102.8" font-family="Times,serif" font-size="14.00">data</text>
<text text-anchor="middle" x="27" y="-87.8" font-family="Times,serif" font-size="14.00">(Data)</text>
</g>
<!-- data\n(Data)&#45;&gt;data -->
<g id="edge1" class="edge"><title>data\n(Data)&#45;&gt;data</title>
<path fill="none" stroke="black" d="M48.1581,-118.217C55.2312,-124.055 63.5349,-129.981 72,-134 92.2009,-143.59 116.665,-149.056 136.457,-152.141"/>
<polygon fill="black" stroke="black" points="136.23,-155.644 146.623,-153.584 137.214,-148.714 136.23,-155.644"/>
<text text-anchor="middle" x="100" y="-154.8" font-family="Times,serif" font-size="14.00">Batch 256</text>
</g>
<!-- data\n(Data)&#45;&gt;data -->
<g id="edge3" class="edge"><title>data\n(Data)&#45;&gt;data</title>
<path fill="none" stroke="black" d="M54.2844,-99.1331C75.1977,-100.175 104.714,-103.786 128,-115 136.951,-119.31 145.396,-125.983 152.499,-132.702"/>
<polygon fill="black" stroke="black" points="150.114,-135.268 159.641,-139.902 155.084,-130.338 150.114,-135.268"/>
<text text-anchor="middle" x="100" y="-118.8" font-family="Times,serif" font-size="14.00">Batch 50</text>
</g>
<!-- data\n(Data)&#45;&gt;label -->
<g id="edge2" class="edge"><title>data\n(Data)&#45;&gt;label</title>
<path fill="none" stroke="black" d="M37.1806,-79.8912C44.5843,-66.8746 56.3418,-50.6649 72,-43 115.765,-21.5766 173.144,-26.1641 210.764,-32.8483"/>
<polygon fill="black" stroke="black" points="210.345,-36.3313 220.824,-34.7693 211.658,-29.4556 210.345,-36.3313"/>
<text text-anchor="middle" x="100" y="-46.8" font-family="Times,serif" font-size="14.00">Batch 256</text>
</g>
<!-- data\n(Data)&#45;&gt;label -->
<g id="edge4" class="edge"><title>data\n(Data)&#45;&gt;label</title>
<path fill="none" stroke="black" d="M54.3037,-88.1106C60.0788,-85.9246 66.2015,-83.7611 72,-82 119.03,-67.7158 174.449,-56.051 210.806,-49.0788"/>
<polygon fill="black" stroke="black" points="211.813,-52.4504 220.989,-47.1532 210.513,-45.5723 211.813,-52.4504"/>
<text text-anchor="middle" x="100" y="-85.8" font-family="Times,serif" font-size="14.00">Batch 50</text>
</g>
<!-- accuracy\n(Accuracy)&#45;&gt;accuracy -->
<g id="edge51" class="edge"><title>accuracy\n(Accuracy)&#45;&gt;accuracy</title>
<path fill="none" stroke="black" d="M3581.79,-19C3597.59,-19 3616.22,-19 3633.27,-19"/>
<polygon fill="black" stroke="black" points="3633.64,-22.5001 3643.64,-19 3633.64,-15.5001 3633.64,-22.5001"/>
</g>
<!-- conv2\n(Convolution)\nkernel size: 5\nstride: 1\npad: 2 -->
<g id="node34" class="node"><title>conv2\n(Convolution)\nkernel size: 5\nstride: 1\npad: 2</title>
<polygon fill="#ff5050" stroke="black" points="1006.5,-75.5 1006.5,-158.5 1099.5,-158.5 1099.5,-75.5 1006.5,-75.5"/>
<text text-anchor="middle" x="1053" y="-143.3" font-family="Times,serif" font-size="14.00">conv2</text>
<text text-anchor="middle" x="1053" y="-128.3" font-family="Times,serif" font-size="14.00">(Convolution)</text>
<text text-anchor="middle" x="1053" y="-113.3" font-family="Times,serif" font-size="14.00">kernel size: 5</text>
<text text-anchor="middle" x="1053" y="-98.3" font-family="Times,serif" font-size="14.00">stride: 1</text>
<text text-anchor="middle" x="1053" y="-83.3" font-family="Times,serif" font-size="14.00">pad: 2</text>
</g>
<!-- conv2\n(Convolution)\nkernel size: 5\nstride: 1\npad: 2&#45;&gt;conv2 -->
<g id="edge14" class="edge"><title>conv2\n(Convolution)\nkernel size: 5\nstride: 1\npad: 2&#45;&gt;conv2</title>
<path fill="none" stroke="black" d="M1099.57,-122.614C1114.88,-124.499 1131.93,-126.6 1147.18,-128.479"/>
<polygon fill="black" stroke="black" points="1147.06,-131.99 1157.41,-129.739 1147.91,-125.043 1147.06,-131.99"/>
<text text-anchor="middle" x="1129" y="-131.8" font-family="Times,serif" font-size="14.00">256</text>
</g>
<!-- fc8&#45;&gt;loss\n(SoftmaxWithLoss) -->
<g id="edge52" class="edge"><title>fc8&#45;&gt;loss\n(SoftmaxWithLoss)</title>
<path fill="none" stroke="black" d="M3442.11,-88.7568C3450.49,-88.3578 3460.21,-87.8947 3470.24,-87.4173"/>
<polygon fill="black" stroke="black" points="3470.5,-90.9087 3480.33,-86.9369 3470.17,-83.9166 3470.5,-90.9087"/>
</g>
<!-- fc8&#45;&gt;accuracy\n(Accuracy) -->
<g id="edge49" class="edge"><title>fc8&#45;&gt;accuracy\n(Accuracy)</title>
<path fill="none" stroke="black" d="M3436.24,-78.5926C3453.17,-69.0574 3477.88,-55.1314 3499.16,-43.1389"/>
<polygon fill="black" stroke="black" points="3501.05,-46.0946 3508.04,-38.1362 3497.61,-39.9962 3501.05,-46.0946"/>
</g>
<!-- norm1&#45;&gt;conv2\n(Convolution)\nkernel size: 5\nstride: 1\npad: 2 -->
<g id="edge13" class="edge"><title>norm1&#45;&gt;conv2\n(Convolution)\nkernel size: 5\nstride: 1\npad: 2</title>
<path fill="none" stroke="black" d="M967.304,-114.9C976.397,-115.126 986.363,-115.373 996.165,-115.616"/>
<polygon fill="black" stroke="black" points="996.193,-119.117 1006.28,-115.866 996.367,-112.119 996.193,-119.117"/>
</g>
<!-- conv4\n(Convolution)\nkernel size: 3\nstride: 1\npad: 1&#45;&gt;conv4 -->
<g id="edge26" class="edge"><title>conv4\n(Convolution)\nkernel size: 3\nstride: 1\npad: 1&#45;&gt;conv4</title>
<path fill="none" stroke="black" d="M2071.57,-130.492C2089.55,-137.789 2109.94,-146.064 2126.99,-152.981"/>
<polygon fill="black" stroke="black" points="2126.01,-156.362 2136.6,-156.879 2128.65,-149.876 2126.01,-156.362"/>
<text text-anchor="middle" x="2101" y="-150.8" font-family="Times,serif" font-size="14.00">384</text>
</g>
<!-- relu4\n(ReLU)&#45;&gt;conv4 -->
<g id="edge28" class="edge"><title>relu4\n(ReLU)&#45;&gt;conv4</title>
<path fill="none" stroke="black" d="M2255.47,-204.964C2238.2,-200.051 2216.11,-192.449 2198.21,-185.281"/>
<polygon fill="black" stroke="black" points="2199.33,-181.956 2188.75,-181.363 2196.65,-188.423 2199.33,-181.956"/>
</g>
<!-- drop7\n(Dropout)&#45;&gt;fc7 -->
<g id="edge46" class="edge"><title>drop7\n(Dropout)&#45;&gt;fc7</title>
<path fill="none" stroke="black" d="M3260.19,-195.042C3249.82,-190.174 3238.44,-184.376 3228,-179 3221.15,-175.472 3213.72,-171.605 3206.95,-167.681"/>
<polygon fill="black" stroke="black" points="3208.6,-164.583 3198.24,-162.323 3204.93,-170.545 3208.6,-164.583"/>
</g>
<!-- pool1\n(MAX Pooling)\nkernel size: 3\nstride: 2\npad: 0&#45;&gt;pool1 -->
<g id="edge10" class="edge"><title>pool1\n(MAX Pooling)\nkernel size: 3\nstride: 2\npad: 0&#45;&gt;pool1</title>
<path fill="none" stroke="black" d="M658.315,-112C667.481,-112 676.936,-112 685.81,-112"/>
<polygon fill="black" stroke="black" points="685.909,-115.5 695.909,-112 685.909,-108.5 685.909,-115.5"/>
</g>
<!-- conv3\n(Convolution)\nkernel size: 3\nstride: 1\npad: 1&#45;&gt;conv3 -->
<g id="edge22" class="edge"><title>conv3\n(Convolution)\nkernel size: 3\nstride: 1\npad: 1&#45;&gt;conv3</title>
<path fill="none" stroke="black" d="M1811.57,-126.632C1826.88,-127.853 1843.93,-129.212 1859.18,-130.428"/>
<polygon fill="black" stroke="black" points="1859.16,-133.937 1869.41,-131.243 1859.72,-126.959 1859.16,-133.937"/>
<text text-anchor="middle" x="1841" y="-133.8" font-family="Times,serif" font-size="14.00">384</text>
</g>
</g>
</svg>
